<svg width="40" height="40" viewBox="0 0 40 40" fill="none" xmlns="http://www.w3.org/2000/svg">
<path d="M38.2503 27.5141C38.2503 30.4928 35.8361 32.907 32.8573 32.907C29.8786 32.907 27.4644 30.4928 27.4644 27.5141C27.4644 24.5353 29.8786 22.1212 32.8573 22.1212C35.8361 22.1212 38.2503 24.5353 38.2503 27.5141Z" fill="url(#paint0_linear_1096_9327)"/>
<path d="M14.5892 28.1714C14.5892 31.0866 12.2266 33.4492 9.31147 33.4492C6.39633 33.4492 4.03369 31.0866 4.03369 28.1714C4.03369 25.2563 6.39633 22.8936 9.31147 22.8936C12.2266 22.8936 14.5892 25.2563 14.5892 28.1714Z" fill="url(#paint1_linear_1096_9327)"/>
<mask id="mask0_1096_9327" style="mask-type:luminance" maskUnits="userSpaceOnUse" x="1" y="8" width="38" height="26">
<path d="M39 8H1V33.5902H39V8Z" fill="white"/>
</mask>
<g mask="url(#mask0_1096_9327)">
<path fill-rule="evenodd" clip-rule="evenodd" d="M9.08027 23.0753C6.59815 23.0753 4.58618 25.0873 4.58618 27.5694C4.58618 30.0515 6.59815 32.0635 9.08027 32.0635C11.5624 32.0635 13.5744 30.0515 13.5744 27.5694C13.5744 25.0873 11.5624 23.0753 9.08027 23.0753ZM3.08618 27.5694C3.08618 24.2589 5.76972 21.5753 9.08027 21.5753C12.3908 21.5753 15.0744 24.2589 15.0744 27.5694C15.0744 30.88 12.3908 33.5635 9.08027 33.5635C5.76972 33.5635 3.08618 30.88 3.08618 27.5694Z" fill="#444444"/>
<path fill-rule="evenodd" clip-rule="evenodd" d="M32.9802 23.0753C30.498 23.0753 28.4861 25.0873 28.4861 27.5694C28.4861 30.0515 30.498 32.0635 32.9802 32.0635C35.4623 32.0635 37.4743 30.0515 37.4743 27.5694C37.4743 25.0873 35.4623 23.0753 32.9802 23.0753ZM26.9861 27.5694C26.9861 24.2589 29.6696 21.5753 32.9802 21.5753C36.2907 21.5753 38.9743 24.2589 38.9743 27.5694C38.9743 30.88 36.2907 33.5635 32.9802 33.5635C29.6696 33.5635 26.9861 30.88 26.9861 27.5694Z" fill="#444444"/>
<path fill-rule="evenodd" clip-rule="evenodd" d="M16.2205 8.77679C16.2205 8.36258 16.5562 8.02679 16.9705 8.02679H21.7915L33.5459 27.182C33.7625 27.5351 33.6519 27.9969 33.2989 28.2135C32.9459 28.4302 32.484 28.3196 32.2674 27.9665L20.952 9.52679H16.9705C16.5562 9.52679 16.2205 9.19101 16.2205 8.77679Z" fill="#444444"/>
<path fill-rule="evenodd" clip-rule="evenodd" d="M27.2998 17.4127C27.6611 17.6154 27.7896 18.0725 27.5869 18.4337L22.8421 26.8904C22.2049 28.026 21.0043 28.7292 19.7022 28.7294L14.3241 28.7301C13.9099 28.7302 13.574 28.3944 13.574 27.9802C13.5739 27.566 13.9097 27.2302 14.3239 27.2301L19.702 27.2294C20.4617 27.2293 21.1622 26.819 21.5339 26.1564L26.2788 17.6998C26.4815 17.3385 26.9386 17.21 27.2998 17.4127Z" fill="#444444"/>
<path fill-rule="evenodd" clip-rule="evenodd" d="M28.4091 11.8108C27.6934 12.106 27.1895 12.8109 27.1895 13.6334C27.1895 14.4557 27.6933 15.1602 28.4091 15.4552V11.8108ZM25.6895 13.6334C25.6895 11.7175 27.2425 10.1628 29.1591 10.1628H29.9091V17.103H29.1591C27.2428 17.103 25.6895 15.5497 25.6895 13.6334Z" fill="#444444"/>
<path fill-rule="evenodd" clip-rule="evenodd" d="M13.2002 20.2146C13.2002 19.8004 13.536 19.4646 13.9502 19.4646H25.5017C25.9159 19.4646 26.2517 19.8004 26.2517 20.2146C26.2517 20.6288 25.9159 20.9646 25.5017 20.9646H13.9502C13.536 20.9646 13.2002 20.6288 13.2002 20.2146Z" fill="#444444"/>
<path fill-rule="evenodd" clip-rule="evenodd" d="M17.6501 17.0293C18.3241 16.3637 19.2332 15.9904 20.1804 15.9904H26.0679C26.4821 15.9904 26.8179 16.3262 26.8179 16.7404C26.8179 17.1547 26.4821 17.4904 26.0679 17.4904H20.1804C19.6278 17.4904 19.0973 17.7082 18.7041 18.0966L16.0192 20.7481C15.7245 21.0392 15.2496 21.0362 14.9586 20.7415C14.6675 20.4468 14.6705 19.9719 14.9652 19.6809L17.6501 17.0293Z" fill="#444444"/>
<path fill-rule="evenodd" clip-rule="evenodd" d="M4.27783 27.8776C4.27783 28.2918 3.94205 28.6276 3.52783 28.6276L2.21208 28.6276C1.79787 28.6276 1.46208 28.2918 1.46208 27.8776C1.46208 27.4634 1.79787 27.1276 2.21208 27.1276L3.52783 27.1276C3.94205 27.1276 4.27783 27.4634 4.27783 27.8776Z" fill="#444444"/>
<path fill-rule="evenodd" clip-rule="evenodd" d="M3.3501 19.0395C3.3501 17.9563 4.22768 17.0788 5.31087 17.0788H12.7396C13.3881 17.0788 13.8877 17.4647 14.1911 17.8605C14.498 18.2609 14.7004 18.7876 14.7004 19.3065V25.6402C14.7004 26.0544 14.3646 26.3902 13.9504 26.3902C13.5362 26.3902 13.2004 26.0544 13.2004 25.6402V19.3065C13.2004 19.1565 13.1319 18.9443 13.0006 18.773C12.8658 18.5972 12.7601 18.5788 12.7396 18.5788H5.31087C5.0561 18.5788 4.8501 18.7848 4.8501 19.0395V25.7945C4.8501 26.2087 4.51431 26.5445 4.1001 26.5445C3.68588 26.5445 3.3501 26.2087 3.3501 25.7945V19.0395Z" fill="#444444"/>
</g>
<defs>
<linearGradient id="paint0_linear_1096_9327" x1="32.8573" y1="22.1212" x2="32.8573" y2="32.907" gradientUnits="userSpaceOnUse">
<stop stop-color="#00D679"/>
<stop offset="0.828138" stop-color="#00D679" stop-opacity="0"/>
</linearGradient>
<linearGradient id="paint1_linear_1096_9327" x1="9.31147" y1="22.8936" x2="9.31147" y2="33.4492" gradientUnits="userSpaceOnUse">
<stop stop-color="#00D679"/>
<stop offset="0.828138" stop-color="#00D679" stop-opacity="0"/>
</linearGradient>
</defs>
</svg>
