<svg width="40" height="40" viewBox="0 0 40 40" fill="none" xmlns="http://www.w3.org/2000/svg">
<mask id="mask0_1096_9345" style="mask-type:luminance" maskUnits="userSpaceOnUse" x="1" y="9" width="38" height="22">
<path d="M39 9H1V30.8377H39V9Z" fill="white"/>
</mask>
<g mask="url(#mask0_1096_9345)">
<path d="M13.8523 25.8987C13.8523 28.2377 11.9566 30.1335 9.61757 30.1335C7.27854 30.1335 5.38281 28.2377 5.38281 25.8987C5.38281 23.5596 7.27854 21.6639 9.61757 21.6639C11.9566 21.6639 13.8523 23.5596 13.8523 25.8987Z" fill="url(#paint0_linear_1096_9345)"/>
<path fill-rule="evenodd" clip-rule="evenodd" d="M9.61757 22.4139C7.69276 22.4139 6.13281 23.9738 6.13281 25.8987C6.13281 27.8235 7.69276 29.3835 9.61757 29.3835C11.5424 29.3835 13.1023 27.8235 13.1023 25.8987C13.1023 23.9738 11.5424 22.4139 9.61757 22.4139ZM4.63281 25.8987C4.63281 23.1454 6.86432 20.9139 9.61757 20.9139C12.3708 20.9139 14.6023 23.1454 14.6023 25.8987C14.6023 28.6519 12.3708 30.8835 9.61757 30.8835C6.86432 30.8835 4.63281 28.6519 4.63281 25.8987Z" fill="#444444"/>
<path d="M34.6165 25.8987C34.6165 28.2377 32.7208 30.1335 30.3817 30.1335C28.0427 30.1335 26.147 28.2377 26.147 25.8987C26.147 23.5596 28.0427 21.6639 30.3817 21.6639C32.7208 21.6639 34.6165 23.5596 34.6165 25.8987Z" fill="url(#paint1_linear_1096_9345)"/>
<path fill-rule="evenodd" clip-rule="evenodd" d="M30.3817 22.4139C28.4569 22.4139 26.897 23.9738 26.897 25.8987C26.897 27.8235 28.4569 29.3835 30.3817 29.3835C32.3065 29.3835 33.8665 27.8235 33.8665 25.8987C33.8665 23.9738 32.3065 22.4139 30.3817 22.4139ZM25.397 25.8987C25.397 23.1454 27.6285 20.9139 30.3817 20.9139C33.135 20.9139 35.3665 23.1454 35.3665 25.8987C35.3665 28.6519 33.135 30.8835 30.3817 30.8835C27.6285 30.8835 25.397 28.6519 25.397 25.8987Z" fill="#444444"/>
<path fill-rule="evenodd" clip-rule="evenodd" d="M25.5083 11.2475C25.1273 10.7068 24.4873 10.4071 23.8271 10.4605L23.7978 10.4629L9.54675 10.4982C9.07057 10.5438 8.62996 10.7699 8.3152 11.1296L3.90413 17.2136C3.66099 17.5489 3.19204 17.6237 2.85669 17.3806C2.52134 17.1374 2.44659 16.6685 2.68973 16.3331L7.13628 10.2002L7.15507 10.1781C7.73413 9.49708 8.56023 9.07325 9.45211 9.00072L9.48153 8.99832L23.7371 8.96307C24.9126 8.87874 26.0489 9.41479 26.7304 10.3778L31.0469 16.2767C31.2915 16.611 31.2188 17.0802 30.8846 17.3249C30.5503 17.5695 30.081 17.4968 29.8364 17.1625L25.5083 11.2475Z" fill="#444444"/>
<path fill-rule="evenodd" clip-rule="evenodd" d="M16.7148 9.54327C17.1288 9.52951 17.4756 9.85395 17.4893 10.2679L17.7061 16.7907C17.7199 17.2047 17.3955 17.5514 16.9815 17.5652C16.5675 17.5789 16.2207 17.2545 16.207 16.8405L15.9902 10.3178C15.9764 9.90378 16.3009 9.55703 16.7148 9.54327Z" fill="#444444"/>
<path d="M6.03047 26.2398V25.8978C6.03047 23.921 7.63889 22.3135 9.61481 22.3135C11.5907 22.3135 13.1992 23.921 13.1992 25.8978V26.2398H14.4991V25.8978C14.4991 23.2045 12.3081 21.0135 9.61393 21.0135C6.91973 21.0135 4.72876 23.2045 4.72876 25.8978V26.2398H6.02871H6.03047Z" fill="#444444"/>
<path d="M26.7978 26.2398V25.8978C26.7978 23.921 28.4062 22.3135 30.3821 22.3135C32.3581 22.3135 33.9665 23.921 33.9665 25.8978V26.2398H35.2664V25.8978C35.2664 23.2045 33.0755 21.0135 30.3813 21.0135C27.6871 21.0135 25.4961 23.2045 25.4961 25.8978V26.2398H26.796H26.7978Z" fill="#444444"/>
<path fill-rule="evenodd" clip-rule="evenodd" d="M13.1023 25.9206C13.1023 25.5064 13.4381 25.1706 13.8523 25.1706H25.4981C25.9123 25.1706 26.2481 25.5064 26.2481 25.9206C26.2481 26.3348 25.9123 26.6706 25.4981 26.6706H13.8523C13.4381 26.6706 13.1023 26.3348 13.1023 25.9206Z" fill="#444444"/>
<path fill-rule="evenodd" clip-rule="evenodd" d="M3.62636 17.7146C2.97947 17.7146 2.45508 18.239 2.45508 18.8859V23.9994C2.45508 24.6463 2.97947 25.1707 3.62636 25.1707H5.38196C5.79617 25.1707 6.13196 25.5065 6.13196 25.9207C6.13196 26.3349 5.79617 26.6707 5.38196 26.6707H3.62636C2.15103 26.6707 0.955078 25.4747 0.955078 23.9994V18.8859C0.955078 17.4106 2.15103 16.2146 3.62636 16.2146H31.2611C35.5602 16.2146 39.045 19.6994 39.045 23.9985C39.045 25.4738 37.849 26.6698 36.3737 26.6698H34.6154C34.2012 26.6698 33.8654 26.334 33.8654 25.9198C33.8654 25.5056 34.2012 25.1698 34.6154 25.1698H36.3737C37.0206 25.1698 37.545 24.6454 37.545 23.9985C37.545 20.5278 34.7318 17.7146 31.2611 17.7146H3.62636Z" fill="#444444"/>
</g>
<defs>
<linearGradient id="paint0_linear_1096_9345" x1="9.61757" y1="21.6639" x2="9.61757" y2="30.1335" gradientUnits="userSpaceOnUse">
<stop stop-color="#00D679"/>
<stop offset="0.828138" stop-color="#00D679" stop-opacity="0"/>
</linearGradient>
<linearGradient id="paint1_linear_1096_9345" x1="30.3817" y1="21.6639" x2="30.3817" y2="30.1335" gradientUnits="userSpaceOnUse">
<stop stop-color="#00D679"/>
<stop offset="0.828138" stop-color="#00D679" stop-opacity="0"/>
</linearGradient>
</defs>
</svg>
