<svg width="10" height="10" viewBox="0 0 10 10" fill="none" xmlns="http://www.w3.org/2000/svg">
<path d="M2 2.75C1.8625 2.75 1.75 2.8625 1.75 3V3.34531L4.44531 5.55781C4.76875 5.82344 5.23281 5.82344 5.55625 5.55781L8.25 3.34531V3C8.25 2.8625 8.1375 2.75 8 2.75H2ZM1.75 4.31562V7C1.75 7.1375 1.8625 7.25 2 7.25H8C8.1375 7.25 8.25 7.1375 8.25 7V4.31562L6.03125 6.1375C5.43125 6.62969 4.56719 6.62969 3.96875 6.1375L1.75 4.31562ZM1 3C1 2.44844 1.44844 2 2 2H8C8.55156 2 9 2.44844 9 3V7C9 7.55156 8.55156 8 8 8H2C1.44844 8 1 7.55156 1 7V3Z" fill="black"/>
</svg>
