<svg width="36" height="34" viewBox="0 0 36 34" fill="none" xmlns="http://www.w3.org/2000/svg">
<g clip-path="url(#clip0_1116_3605)">
<mask id="mask0_1116_3605" style="mask-type:luminance" maskUnits="userSpaceOnUse" x="0" y="0" width="36" height="34">
<path d="M36 0H0V33.0145H36V0Z" fill="white"/>
</mask>
<g mask="url(#mask0_1116_3605)">
<path d="M12.4395 17.9676L4.60742 18.4283L18.4287 31.3282L30.8679 17.9676L22.5751 18.4283L18.8894 24.4176L15.2037 11.057L12.4395 17.9676Z" fill="url(#paint0_linear_1116_3605)"/>
<path fill-rule="evenodd" clip-rule="evenodd" d="M10.6117 1.53638C5.59929 1.53638 1.53687 5.5989 1.53687 10.6102C1.53687 13.2588 2.67086 15.6415 4.48276 17.3026L4.49525 17.314L17.9739 30.84L31.4493 17.3664L32.1375 16.6783C32.1479 16.6673 32.1563 16.6576 32.1631 16.6493L32.173 16.6371L32.1834 16.6253C33.6038 15.0243 34.464 12.92 34.464 10.6112V10.4764C34.3919 5.52612 30.3583 1.53638 25.3911 1.53638C22.67 1.53638 20.229 2.73393 18.5653 4.63117L18.0015 5.27404L17.4376 4.63133C15.7728 2.73385 13.3327 1.53638 10.6117 1.53638ZM35.9378 11.3612C35.7704 13.7506 34.8091 15.9214 33.3149 17.6102C33.2826 17.6492 33.2488 17.6867 33.2139 17.7229L33.209 17.728L32.51 18.4271L17.9719 32.9631L3.45642 18.3966C1.35523 16.4641 0.0368652 13.6906 0.0368652 10.6102C0.0368652 4.77038 4.77095 0.036377 10.6117 0.036377C13.488 0.036377 16.0958 1.18617 18.0013 3.04722C19.9063 1.18607 22.5149 0.036377 25.3911 0.036377C31.232 0.036377 35.9649 4.77052 35.9649 10.6112V11.3612H35.9378Z" fill="#444444"/>
<path fill-rule="evenodd" clip-rule="evenodd" d="M15.5436 12.9454L13.587 18.6575H4.48364C4.06943 18.6575 3.73364 18.3217 3.73364 17.9075C3.73364 17.4933 4.06943 17.1575 4.48364 17.1575H12.5152L14.8368 10.3797L14.8439 10.3621C15.1381 9.62642 16.1751 9.68282 16.4128 10.415L16.4186 10.4328L19.6426 22.368L21.6893 17.3443H31.5702C31.9844 17.3443 32.3202 17.6801 32.3202 18.0943C32.3202 18.5085 31.9844 18.8443 31.5702 18.8443H22.6979L20.2911 24.7518C20.0019 25.4956 18.9576 25.4334 18.7208 24.7041L18.715 24.6862L15.5436 12.9454ZM18.8973 24.1974C18.8985 24.1942 18.8998 24.1911 18.9011 24.1879L18.8973 24.1974Z" fill="#444444"/>
</g>
</g>
<defs>
<linearGradient id="paint0_linear_1116_3605" x1="17.7376" y1="11.057" x2="17.7376" y2="31.3282" gradientUnits="userSpaceOnUse">
<stop stop-color="#00D679"/>
<stop offset="0.807304" stop-color="#00D679" stop-opacity="0"/>
</linearGradient>
<clipPath id="clip0_1116_3605">
<rect width="36" height="33.0145" fill="white"/>
</clipPath>
</defs>
</svg>
