<svg width="37" height="48" viewBox="0 0 37 48" fill="none" xmlns="http://www.w3.org/2000/svg">
<g clip-path="url(#clip0_1125_2866)">
<circle r="14.8438" transform="matrix(-1 0 0 1 20.8436 32.8438)" fill="url(#paint0_linear_1125_2866)"/>
<path d="M18.2498 30.9965C17.2808 30.899 16.3887 30.8593 15.5161 30.7138C12.9606 30.2856 10.5454 29.5676 8.88934 27.3785C8.55984 26.9431 8.01554 26.8818 7.58963 27.156C7.08927 27.4784 6.93306 27.9968 7.24426 28.5031C7.46271 28.8579 7.73485 29.1899 8.02653 29.4894C9.43242 30.9291 11.1934 31.7843 13.1241 32.2389C14.7851 32.6298 16.4912 32.8367 18.1912 33.1266V39.9246C17.6676 39.9246 17.2051 39.921 16.7413 39.9246C15.3281 39.9378 13.9149 39.9438 12.5017 39.9727C11.0641 40.0016 10.2049 41.3872 10.6162 42.614C11.13 44.1463 11.645 45.6774 12.1795 47.2025C12.4029 47.84 12.9569 48.1214 13.5036 47.9266C14.0809 47.7209 14.3201 47.2097 14.1077 46.5687C13.6806 45.2805 13.2376 43.9984 12.8056 42.7126C12.7324 42.4937 12.6787 42.2676 12.6128 42.0342H25.9382C25.4244 43.5594 24.9265 45.0291 24.4371 46.5025C24.2077 47.1941 24.4237 47.7221 25.0034 47.9338C25.5733 48.1419 26.1225 47.8544 26.3605 47.1701C26.8852 45.6618 27.3966 44.1499 27.8933 42.632C28.3192 41.3306 27.3856 39.9186 25.8613 39.9282C24.1906 39.939 22.5199 39.9583 20.8492 39.9474C20.682 39.9474 20.3781 39.7586 20.3732 39.6468C20.3342 38.7615 20.3513 37.8739 20.3513 36.9802C23.0996 36.8371 25.3366 35.7991 27.0512 33.7267C27.4845 33.2023 27.4649 32.6202 27.0036 32.2413C26.5679 31.8817 25.9944 31.9515 25.5404 32.3989C25.1401 32.7934 24.7496 33.2047 24.309 33.5511C23.1557 34.4544 21.8389 34.9331 20.3 34.9572V34.2608C20.3 31.6616 20.3024 29.0636 20.2963 26.4644C20.2963 26.2094 20.2658 25.9472 20.2012 25.6995C20.0816 25.24 19.7508 24.9814 19.2749 24.979C18.7684 24.9766 18.4414 25.2653 18.3132 25.7392C18.2571 25.9472 18.2534 26.1734 18.2522 26.3911C18.2473 27.8873 18.2498 29.3835 18.2498 30.9965Z" fill="white"/>
<path d="M20.799 0C21.7387 0.217701 22.7089 0.347599 23.612 0.666333C29.1489 2.62323 32.4586 6.45645 33.319 12.2225C33.867 15.891 32.8675 19.2178 30.7428 22.2199C31.4604 22.5819 32.206 22.8874 32.876 23.3096C35.7244 25.1077 37.0693 28.4538 36.3407 31.8204C35.6658 34.9368 32.8931 37.4505 29.6115 37.9112C29.2124 37.9665 28.8048 38.0255 28.4057 38.005C27.7809 37.9737 27.3574 37.5131 27.3745 36.9646C27.3916 36.4089 27.8187 36.0277 28.4631 35.9928C31.3164 35.8412 33.3739 34.3185 34.2209 31.735C35.3632 28.247 32.8394 24.4306 29.1697 24.0962C29.0489 24.0854 28.928 24.071 28.8084 24.0505C27.6918 23.8593 27.4209 23.0919 28.0921 22.2055C28.8268 21.2348 29.6212 20.275 30.168 19.201C33.8352 11.994 29.1111 3.26792 21.0236 2.1313C15.0241 1.28816 9.42374 4.8243 7.67858 10.4099C6.65345 13.6911 7.00737 16.876 8.70249 19.895C8.80012 20.0694 8.91484 20.2353 9.01125 20.4109C9.44571 21.2036 9.06983 21.924 8.15088 21.9782C6.80844 22.0563 5.55144 22.3462 4.47383 23.1893C2.39307 24.8203 1.59615 26.96 2.23808 29.4678C2.8739 31.9503 4.6032 33.4429 7.17456 33.9312C7.42962 33.9794 7.69933 33.9553 7.96293 33.9649C8.661 33.9902 9.11498 34.4039 9.1162 35.0173C9.11742 35.579 8.6488 35.994 7.96171 35.9868C5.28295 35.9579 3.18266 34.8032 1.5693 32.7369C0.804116 31.7566 0.313519 30.6501 0.114595 29.4221C0.0999504 29.3295 0.0401512 29.2441 0.00109863 29.1551V26.8758C0.0401512 26.7868 0.0975096 26.7014 0.115815 26.6088C0.735775 23.4371 2.67376 21.4104 5.70887 20.3352C5.96027 20.2462 6.22266 20.1872 6.50579 20.1054C5.26221 17.4774 4.77893 14.7952 5.24024 12.0012C6.12991 6.61161 9.20407 2.89867 14.3187 0.868397C15.4073 0.435401 16.6094 0.281447 17.759 0H20.8002H20.799Z" fill="#444444"/>
<path d="M18.2497 30.9965C18.2497 29.3836 18.2473 27.8873 18.2522 26.3911C18.2522 26.1734 18.2571 25.9473 18.3132 25.7392C18.4414 25.2641 18.7684 24.9754 19.2749 24.979C19.7508 24.9814 20.0803 25.24 20.2012 25.6995C20.2658 25.9461 20.2951 26.2083 20.2963 26.4645C20.3024 29.0636 20.3 31.6616 20.3 34.2608V34.9572C21.8389 34.9319 23.1557 34.4544 24.309 33.5512C24.7508 33.2048 25.1413 32.7934 25.5404 32.3989C25.9931 31.9515 26.5667 31.8817 27.0036 32.2413C27.4637 32.6202 27.4845 33.2036 27.0512 33.7268C25.3366 35.7991 23.0984 36.8371 20.3513 36.9802C20.3513 37.8739 20.3342 38.7615 20.3732 39.6468C20.3781 39.7586 20.682 39.9463 20.8492 39.9475C22.5199 39.9595 24.1906 39.939 25.8613 39.9282C27.3856 39.9186 28.3192 41.3306 27.8933 42.632C27.3966 44.1487 26.8852 45.6618 26.3605 47.1701C26.1225 47.8545 25.5733 48.1419 25.0034 47.9338C24.4237 47.7221 24.2077 47.1941 24.4371 46.5025C24.9265 45.0304 25.4257 43.5594 25.9382 42.0343H12.6115C12.6774 42.2676 12.7311 42.4937 12.8044 42.7126C13.2364 43.9984 13.6794 45.2805 14.1065 46.5687C14.3189 47.2098 14.0797 47.7221 13.5024 47.9266C12.9545 48.1215 12.4016 47.8412 12.1783 47.2026C11.6438 45.6774 11.1288 44.1463 10.615 42.614C10.2037 41.3872 11.0629 40.0028 12.5005 39.9727C13.9137 39.9439 15.3269 39.9378 16.7401 39.9246C17.2039 39.9198 17.6664 39.9246 18.19 39.9246V33.1266C16.4899 32.8367 14.7838 32.6298 13.1229 32.2389C11.1922 31.7843 9.4312 30.9291 8.02531 29.4894C7.73241 29.1899 7.46149 28.858 7.24304 28.5031C6.93184 27.998 7.08805 27.4796 7.58841 27.156C8.01432 26.8818 8.55862 26.942 8.88812 27.3786C10.5442 29.5664 12.9594 30.2856 15.5149 30.7138C16.3874 30.8606 17.2795 30.9003 18.2485 30.9965H18.2497Z" fill="#444444"/>
<path d="M24.0246 8.43829H20.9663C21.5997 8.93383 22.0586 9.64346 22.1892 10.6345H24.0234C24.3249 10.6345 24.5689 10.8751 24.5689 11.1722C24.5689 11.4693 24.3249 11.7098 24.0234 11.7098H22.2099C21.9915 13.9061 20.2219 15.3049 17.426 15.3915C18.7928 16.7903 20.2573 18.4802 21.7303 20.2374C22.1672 20.7594 21.7913 21.5472 21.1042 21.5472C20.8626 21.5472 20.6332 21.4402 20.4794 21.2574C18.9722 19.4689 17.5297 17.7838 15.7516 15.8978C15.5088 15.6405 15.3721 15.3025 15.3721 14.9501C15.3721 14.5159 15.7296 14.1635 16.1702 14.1635H16.5729C18.932 14.1635 20.1987 13.1952 20.3513 11.7098H15.9176C15.6161 11.7098 15.3721 11.4693 15.3721 11.1722C15.3721 10.8751 15.6161 10.6345 15.9176 10.6345H20.2866C19.9803 9.38607 18.8233 8.76184 16.9232 8.76184H16.0823C15.6906 8.76184 15.3721 8.44912 15.3721 8.06183C15.3721 7.67574 15.6894 7.36182 16.0823 7.36182H24.0222C24.3236 7.36182 24.5677 7.60237 24.5677 7.89945C24.5677 8.19654 24.3236 8.43709 24.0222 8.43709L24.0246 8.43829Z" fill="#444444"/>
</g>
<defs>
<linearGradient id="paint0_linear_1125_2866" x1="3.79882e-07" y1="22.6562" x2="21.875" y2="10.9375" gradientUnits="userSpaceOnUse">
<stop stop-color="#89EBBB"/>
<stop offset="1" stop-color="#89EBBB" stop-opacity="0"/>
</linearGradient>
<clipPath id="clip0_1125_2866">
<rect width="36.5373" height="48" fill="white"/>
</clipPath>
</defs>
</svg>
