<svg width="40" height="40" viewBox="0 0 40 40" fill="none" xmlns="http://www.w3.org/2000/svg">
<mask id="mask0_1096_9313" style="mask-type:luminance" maskUnits="userSpaceOnUse" x="2" y="3" width="36" height="35">
<path d="M38 3H2V37.2214H38V3Z" fill="white"/>
</mask>
<g mask="url(#mask0_1096_9313)">
<path d="M7.85137 8.40011C5.14209 10.7707 3.35137 16.9502 2.90137 19.6502L4.25137 19.2002C9.65137 16.0502 11.4514 17.8502 14.1514 20.1002C20.0014 14.7002 24.0514 18.7502 25.8514 20.1002C29.9014 14.2502 35.3014 19.2002 37.1014 20.1002C37.1014 17.8502 35.7514 15.6002 34.4014 12.4501C32.6014 7.4101 24.5014 4.20008 20.9014 3.45007C15.9514 3.90008 11.4514 5.25009 7.85137 8.40011Z" fill="url(#paint0_linear_1096_9313)"/>
<path d="M16.7797 37.24C14.4997 37.24 12.6497 35.39 12.6497 33.11C12.6497 32.72 12.9697 32.4 13.3597 32.4C13.7497 32.4 14.0697 32.72 14.0697 33.11C14.0697 34.6 15.2797 35.82 16.7797 35.82C18.2797 35.82 19.4897 34.61 19.4897 33.11C19.4897 32.72 19.8097 32.4 20.1997 32.4C20.5897 32.4 20.9097 32.72 20.9097 33.11C20.9097 35.39 19.0597 37.24 16.7797 37.24Z" fill="#444444"/>
<path d="M2.93983 21.44C2.79983 21.44 2.64983 21.4 2.52983 21.31C2.20983 21.08 2.12983 20.64 2.35983 20.32C2.39983 20.26 3.44983 18.79 5.27983 17.75C8.30983 16.03 12.1298 16.69 14.3698 19.33C14.5798 19.58 14.7598 19.84 14.8998 20.1C15.0898 20.44 14.9698 20.88 14.6198 21.07C14.2798 21.26 13.8398 21.14 13.6498 20.79C13.5498 20.62 13.4298 20.44 13.2698 20.26C11.4798 18.14 8.40983 17.61 5.96983 19C4.42983 19.88 3.51983 21.14 3.50983 21.15C3.36983 21.35 3.14983 21.45 2.92983 21.45L2.93983 21.44Z" fill="#444444"/>
<path d="M36.8995 21.44C36.6795 21.44 36.4495 21.33 36.3195 21.14C36.3195 21.13 35.3995 19.86 33.8595 18.99C31.4295 17.61 28.3595 18.13 26.5595 20.25C26.4095 20.43 26.2795 20.61 26.1795 20.78C25.9895 21.12 25.5595 21.25 25.2095 21.06C24.8695 20.87 24.7395 20.44 24.9295 20.09C25.0695 19.83 25.2495 19.58 25.4695 19.32C27.7095 16.68 31.5295 16.02 34.5595 17.74C36.3895 18.78 37.4295 20.25 37.4795 20.31C37.7095 20.63 37.6295 21.08 37.3095 21.3C37.1895 21.39 37.0395 21.43 36.8995 21.43V21.44Z" fill="#444444"/>
<path d="M25.5298 21.14C25.2798 21.14 25.0398 21.01 24.9098 20.77C24.8298 20.63 24.7398 20.5 24.6398 20.37C23.0298 18.3 20.1098 17.57 17.6998 18.63C15.9498 19.4 14.9598 20.74 14.9498 20.75C14.7198 21.07 14.2698 21.14 13.9498 20.91C13.6298 20.68 13.5598 20.23 13.7898 19.91C13.8398 19.84 15.0198 18.24 17.1198 17.31C20.1698 15.97 23.7298 16.87 25.7598 19.48C25.9098 19.67 26.0398 19.86 26.1498 20.07C26.3398 20.41 26.2198 20.85 25.8698 21.04C25.7598 21.1 25.6398 21.13 25.5298 21.13V21.14Z" fill="#444444"/>
<path d="M37.2998 21.72C36.9098 21.72 36.5898 21.4 36.5898 21.01C36.5898 11.86 29.1498 4.43 20.0098 4.43C10.8698 4.43 3.42977 11.86 3.42977 21.01C3.42977 21.4 3.10977 21.72 2.71977 21.72C2.32977 21.72 2.00977 21.4 2.00977 21.01C1.99977 11.08 10.0798 3 20.0098 3C29.9398 3 38.0198 11.08 38.0198 21.01C38.0198 21.4 37.6998 21.72 37.3098 21.72H37.2998Z" fill="#444444"/>
<path d="M20.21 33.7201C19.82 33.7201 19.5 33.4001 19.5 33.0101V17.8901C19.5 17.5001 19.82 17.1801 20.21 17.1801C20.6 17.1801 20.92 17.5001 20.92 17.8901V33.0201C20.92 33.4101 20.6 33.7301 20.21 33.7301V33.7201Z" fill="#444444"/>
</g>
<defs>
<linearGradient id="paint0_linear_1096_9313" x1="20.0014" y1="3.45007" x2="20.0014" y2="20.1002" gradientUnits="userSpaceOnUse">
<stop stop-color="#00D679"/>
<stop offset="0.828138" stop-color="#00D679" stop-opacity="0"/>
</linearGradient>
</defs>
</svg>
