<svg width="49" height="48" viewBox="0 0 49 48" fill="none" xmlns="http://www.w3.org/2000/svg">
<circle r="11.113" transform="matrix(-1 0 0 1 19.1129 35.113)" fill="url(#paint0_linear_1125_2856)"/>
<path d="M48.5435 1.20241L48.5132 1.18221C46.7351 -0.141246 45.2702 -0.121041 44.3509 0.141629C43.9973 0.242656 43.6639 0.384094 43.3406 0.565942C42.6233 0.990255 42.0272 1.62672 41.613 2.41473L40.8654 3.84932C40.7139 4.14229 40.5826 4.45548 40.5017 4.77876L35.8949 21.1653L31.3992 20.7915C27.3682 20.4278 24.3071 19.9934 21.145 19.3468C17.8111 18.67 16.8918 18.185 15.4976 17.4374C14.7601 17.0434 13.9317 16.5989 12.6486 16.0534C10.4665 15.1239 8.53684 15.0734 7.08205 15.922C6.74867 16.114 6.53651 16.4575 6.52641 16.8414C6.5163 17.2253 6.69815 17.5789 7.01133 17.791C7.35483 18.0234 7.80945 18.0436 8.15294 17.8415C9.00156 17.3566 10.2543 17.4374 11.7697 18.084C12.982 18.5992 13.7498 19.0134 14.4368 19.3872C14.8005 19.5792 15.1036 19.7408 15.4168 19.8924L15.5986 19.9833L15.5784 20.0641L14.356 25.2367H14.2651L11.2848 24.8528C10.4462 24.7417 9.59762 24.974 8.95105 25.4893C8.34489 25.9641 7.95088 26.641 7.85996 27.3886L7.72863 28.4999C7.53667 30.0961 8.7591 31.5711 10.4462 31.7832L12.7396 32.0358L12.7093 32.1469L10.4058 41.8556L10.1129 41.694C7.19318 40.0877 4.78874 38.0166 2.98036 35.5515C2.76821 35.2687 2.43482 35.0969 2.09133 35.0969C1.85896 35.0969 1.6266 35.1676 1.43465 35.3091C0.949723 35.6728 0.838593 36.3598 1.20229 36.8548C5.46562 42.6335 12.5274 46.3412 21.0844 47.2909C22.4179 47.4424 23.802 47.5131 25.176 47.5131C33.4602 47.5131 41.6029 44.7349 46.9675 40.0674C47.4221 39.6633 47.4726 38.9663 47.0786 38.5116C46.6745 38.057 45.9774 38.0065 45.5228 38.4005C43.0678 40.5322 39.9158 42.29 36.4001 43.4822L36.1071 43.5832L34.7836 33.2683V33.2178L42.8961 4.38476C43.1891 3.71798 43.9468 2.53597 44.9368 2.2733C45.5935 2.09145 46.3613 2.32381 47.22 2.97038C47.705 3.33408 48.402 3.24315 48.7657 2.75822C49.1294 2.2733 49.0385 1.57621 48.5435 1.21251V1.20241ZM16.0532 27.6714L16.2755 27.7018L33.44 29.8637L32.8439 31.9954H32.7631L15.4774 30.0961L16.0532 27.6714ZM10.719 29.5708C10.4564 29.5404 10.224 29.4091 10.0826 29.2273C9.97142 29.0858 9.92091 28.9141 9.94111 28.7524L10.0724 27.6411C10.0927 27.4795 10.1735 27.3381 10.325 27.2269C10.517 27.0754 10.7695 27.0148 11.0221 27.0451L13.8509 27.3987L13.2649 29.8536L10.719 29.5708ZM33.743 44.2601C30.9648 44.947 28.0754 45.3006 25.1659 45.3006C23.8828 45.3006 22.5897 45.2299 21.3369 45.0885C18.2354 44.745 15.3157 44.0075 12.6587 42.8962L12.4567 42.8154L14.9621 32.2581L15.1844 32.2783L32.6722 34.1978V34.2786L33.9653 44.2095L33.743 44.2601ZM34.0461 27.7119L16.5584 25.5095L17.6798 20.7814L17.9323 20.8521C18.6799 21.0643 19.5892 21.2866 20.6904 21.5088C23.8424 22.1453 26.8429 22.5797 30.7425 22.9434L33.4804 23.1859C33.9653 23.2263 34.4603 23.2667 34.9554 23.3071L35.2584 23.3273L34.0259 27.7119H34.0461Z" fill="#444444"/>
<defs>
<linearGradient id="paint0_linear_1125_2856" x1="2.84403e-07" y1="16.9619" x2="16.377" y2="8.18849" gradientUnits="userSpaceOnUse">
<stop stop-color="#89EBBB"/>
<stop offset="1" stop-color="#89EBBB" stop-opacity="0"/>
</linearGradient>
</defs>
</svg>
