<svg width="10" height="10" viewBox="0 0 10 10" fill="none" xmlns="http://www.w3.org/2000/svg">
<g clip-path="url(#clip0_9_6)">
<path d="M3.57656 1.38442C3.45625 1.0938 3.13906 0.93911 2.83594 1.02192L1.46094 1.39692C1.18906 1.47192 1 1.7188 1 2.00005C1 5.86567 4.13438 9.00005 8 9.00005C8.28125 9.00005 8.52813 8.81098 8.60313 8.53911L8.97813 7.16411C9.06094 6.86098 8.90625 6.5438 8.61562 6.42348L7.11562 5.79848C6.86094 5.69223 6.56563 5.76567 6.39219 5.97973L5.76094 6.75005C4.66094 6.22973 3.77031 5.33911 3.25 4.23911L4.02031 3.60942C4.23438 3.43442 4.30781 3.14067 4.20156 2.88598L3.57656 1.38598V1.38442Z" fill="black"/>
</g>
<defs>
<clipPath id="clip0_9_6">
<rect width="8" height="8" fill="white" transform="translate(1 1)"/>
</clipPath>
</defs>
</svg>
