<svg width="104" height="122" viewBox="0 0 104 122" fill="none" xmlns="http://www.w3.org/2000/svg">
<path opacity="0.8" d="M76 121.816C66.0195 121.816 56.1368 119.851 46.9161 116.031C37.6953 112.212 29.3171 106.614 22.2599 99.5565C15.2026 92.4993 9.60451 84.1211 5.78515 74.9004C1.96579 65.6796 -4.13194e-06 55.7969 -3.8147e-06 45.8164L76 45.8164L76 121.816Z" fill="#FABB18" fill-opacity="0.8"/>
<path opacity="0.8" d="M104 103.816C94.0195 103.816 84.1368 101.152 74.9161 95.976C65.6953 90.7998 57.3171 83.2128 50.2599 73.6484C43.2026 64.084 37.6045 52.7293 33.7851 40.2328C29.9658 27.7363 28 14.3426 28 0.816407L104 0.816411L104 103.816Z" fill="#3CC482" fill-opacity="0.7"/>
</svg>
