<svg width="96" height="125" viewBox="0 0 96 125" fill="none" xmlns="http://www.w3.org/2000/svg">
<path opacity="0.8" d="M95.1665 48.8033C94.9549 58.7815 92.78 68.6203 88.766 77.758C84.752 86.8957 78.9775 95.1533 71.7722 102.059C64.5669 108.965 56.0719 114.385 46.7723 118.008C37.4726 121.631 27.5504 123.386 17.5722 123.175L19.1836 47.1919L95.1665 48.8033Z" fill="#3CC482" fill-opacity="0.7"/>
<path opacity="0.8" d="M78.1665 1.6114C77.8797 15.1345 75.6304 28.4835 71.5469 40.8963C67.4635 53.309 61.6259 64.5424 54.3674 73.9551C47.109 83.3677 38.5718 90.7753 29.2434 95.7549C19.9149 100.734 9.97795 103.188 -0.000272391 102.977L2.1836 7.04364e-08L78.1665 1.6114Z" fill="#FABB18" fill-opacity="0.7"/>
</svg>
