<svg width="48" height="48" viewBox="0 0 48 48" fill="none" xmlns="http://www.w3.org/2000/svg">
<g clip-path="url(#clip0_1125_2841)">
<circle r="14.8438" transform="matrix(-1 0 0 1 32.8438 31.8438)" fill="url(#paint0_linear_1125_2841)"/>
<path d="M27.0745 0C28.4448 1.12436 29.0469 2.64293 29.2015 4.34658C29.2497 4.8777 29.4145 5.14263 29.8899 5.38728C34.3226 7.67021 37.4067 11.1295 38.9215 15.9172C39.0508 16.3241 39.1965 16.4737 39.6478 16.4648C41.501 16.4242 43.1768 17.5752 43.9373 19.346C44.6725 21.056 44.3037 23.1209 43.0019 24.443C41.5936 25.8729 39.9115 26.2341 38.0164 25.6346C37.4447 25.4533 37.1304 24.8499 37.2913 24.3416C37.4802 23.7471 37.9923 23.4606 38.6248 23.595C40.1815 23.9246 41.0853 23.6318 41.7761 22.5733C42.3402 21.7101 42.2971 20.4159 41.6772 19.611C41.0231 18.7604 39.8709 18.3877 38.8594 18.6996C37.9543 18.9784 37.4295 18.6856 37.2026 17.7134C36.1987 13.401 33.7433 10.1572 29.9875 7.86416C29.7365 7.71078 29.4741 7.57895 29.213 7.44205C29.123 7.39515 29.0241 7.36219 28.9189 7.31909C27.6842 10.265 25.5509 12.0472 22.3299 12.0992C18.9822 12.1524 16.7119 10.4095 15.3531 7.17965C14.306 7.89838 13.2489 8.52838 12.2982 9.29147C9.61468 11.4476 7.92371 14.2478 7.10358 17.5853C6.82471 18.7211 6.38739 18.9734 5.29599 18.6628C4.33769 18.3903 3.18418 18.8149 2.56559 19.668C1.98123 20.4716 1.95588 21.7367 2.50601 22.5809C3.10939 23.505 4.15389 23.9487 5.1743 23.7129C6.51795 23.4023 6.78795 23.5899 7.16315 24.9539C8.89596 31.2411 13.06 34.9603 19.3473 36.3787C20.2422 36.5802 21.1891 36.5473 22.1094 36.6398C22.8268 36.7121 23.2223 37.1481 23.1792 37.7768C23.1399 38.3485 22.657 38.7757 21.9991 38.7668C18.3421 38.7174 14.9931 37.6881 12.0168 35.5421C8.7768 33.2072 6.44696 30.2004 5.32641 26.3241C5.23895 26.0224 5.11726 25.883 4.7636 25.897C2.28418 25.9933 0.276314 24.045 0.0342034 21.8597C-0.271287 19.0925 1.36391 16.9389 4.02966 16.4889C4.39853 16.4268 4.78008 16.4496 5.19838 16.4306C6.53062 11.7455 9.37511 8.21655 13.5759 5.81826C17.8097 3.40096 22.3337 3.09166 27.0606 4.25405C26.9921 3.38448 26.6169 2.68096 26.1213 2.02308C25.4381 1.11675 25.4812 0.718726 26.314 0.00126759H27.0733L27.0745 0ZM17.4408 6.44445C17.9922 8.54612 19.9684 10.0203 22.1233 10.0178C24.3593 10.0153 26.3507 8.54739 26.9034 6.45586C23.7598 5.52544 20.6288 5.50389 17.4408 6.44445Z" fill="#444444"/>
<path d="M22.4035 28.3271C20.5198 28.3068 19.0646 27.7541 17.8515 26.5994C17.456 26.2229 17.2646 25.7666 17.5283 25.2392C17.745 24.8032 18.1253 24.5661 18.6159 24.679C18.8656 24.736 19.1115 24.8957 19.3156 25.063C21.1688 26.5803 23.1158 26.6006 24.9868 25.115C25.1972 24.949 25.4191 24.7525 25.6662 24.6878C26.1669 24.5585 26.5726 24.7601 26.8236 25.2253C27.0974 25.7336 26.9262 26.1696 26.5637 26.5398C25.7157 27.403 24.6813 27.9392 23.5012 28.1826C23.0727 28.2713 22.6304 28.2979 22.4035 28.3258V28.3271Z" fill="#444444"/>
<path d="M15.8323 21.4885C14.6699 21.4923 13.6926 20.5289 13.6938 19.3766C13.6938 18.2181 14.6636 17.2724 15.8412 17.2813C16.9947 17.2902 17.9301 18.2092 17.9479 19.3526C17.9656 20.501 16.9934 21.4821 15.8335 21.4872L15.8323 21.4885Z" fill="#444444"/>
<path d="M28.4688 21.4882C27.3077 21.4882 26.3329 20.5198 26.3393 19.3688C26.3456 18.2102 27.3166 17.2697 28.4942 17.2824C29.6426 17.295 30.5819 18.2254 30.5933 19.3625C30.6047 20.5135 29.6312 21.487 28.4701 21.4882H28.4688Z" fill="#444444"/>
<path d="M26.8793 34.0272C26.8793 35.0996 26.9173 36.2138 26.8628 37.3216C26.835 37.8832 27.0517 38.1545 27.5511 38.2419C29.2662 38.5436 30.9762 39.0139 32.7026 39.0836C35.4939 39.1964 38.2991 39.1229 41.0903 38.9657C42.5214 38.8846 43.9373 38.4663 45.3507 38.1633C45.5421 38.1228 45.8248 37.868 45.8299 37.7045C45.8704 36.4686 45.8514 35.2301 45.8514 34.0259C39.5084 35.4367 33.2198 35.4342 26.8781 34.0259L26.8793 34.0272ZM26.8793 40.2916C26.8793 41.4084 26.9262 42.4846 26.8616 43.5544C26.8235 44.1945 27.0631 44.4975 27.6475 44.5951C29.3651 44.8828 31.0738 45.2619 32.8041 45.4279C35.916 45.7271 39.0343 45.6219 42.131 45.1845C43.2478 45.0261 44.3442 44.7168 45.4432 44.4455C45.603 44.4062 45.8324 44.192 45.8362 44.0538C45.8666 42.8053 45.8539 41.5554 45.8539 40.2891C39.6301 41.7506 33.2655 41.7506 26.8806 40.2916H26.8793ZM26.4547 46.5713C25.4406 46.3127 24.7345 45.3962 24.7409 44.3505C24.7688 39.6654 24.7485 37.5346 24.7409 32.1638C24.7409 31.2816 25.1871 30.6921 25.9121 30.2941C27.4193 29.4651 29.09 29.2166 30.762 29.024C34.5445 28.5879 38.3346 28.6031 42.112 29.0405C43.694 29.223 45.2835 29.4638 46.726 30.2345C47.5829 30.6921 48.0127 31.3411 48 32.3603C47.9594 35.3531 47.986 38.3459 47.9848 41.3387C47.9848 43.221 47.9696 43.5278 47.9721 44.2541C47.9772 45.4482 47.1114 46.4686 45.9325 46.6587L45.9161 46.6613C45.873 46.6676 45.8311 46.6765 45.7893 46.6854C39.4792 48.0899 33.2097 48.0734 26.8781 46.6816L26.4534 46.5725L26.4547 46.5713ZM27.4485 31.7683C31.0472 33.3452 42.2666 33.2121 45.2316 31.7582C39.2726 30.4918 33.4455 30.5147 27.4485 31.7683Z" fill="#444444"/>
</g>
<defs>
<linearGradient id="paint0_linear_1125_2841" x1="3.79882e-07" y1="22.6562" x2="21.875" y2="10.9375" gradientUnits="userSpaceOnUse">
<stop stop-color="#89EBBB"/>
<stop offset="1" stop-color="#89EBBB" stop-opacity="0"/>
</linearGradient>
<clipPath id="clip0_1125_2841">
<rect width="48" height="47.7313" fill="white"/>
</clipPath>
</defs>
</svg>
