<svg width="48" height="48" viewBox="0 0 48 48" fill="none" xmlns="http://www.w3.org/2000/svg">
<g clip-path="url(#clip0_1125_2876)">
<circle r="11" transform="matrix(-1 0 0 1 23.0001 26)" fill="url(#paint0_linear_1125_2876)"/>
<path d="M48 37.3055C47.703 37.5533 47.4384 37.8635 47.1029 38.0403C42.1087 40.6715 37.1241 43.3207 32.0914 45.8774C30.664 46.6025 29.1187 47.1316 27.5794 47.591C25.6048 48.1803 23.5966 47.8844 21.6785 47.288C18.3318 46.2465 15.0224 45.0873 11.6973 43.9761C10.9986 43.7428 10.3095 43.4674 9.59763 43.2871C9.31382 43.2149 8.92059 43.2522 8.67647 43.4025C6.36035 44.8179 4.06587 46.2706 1.76298 47.7077C1.07873 48.1346 0.521942 48.0468 0.155163 47.4683C-0.162312 46.9681 0.00845135 46.4161 0.654224 46.012C3.20845 44.4114 5.7735 42.8301 8.32533 41.2259C8.85204 40.8952 9.35231 41.013 9.87181 41.191C13.4903 42.4332 17.0968 43.7128 20.7333 44.8973C22.0513 45.3266 23.4294 45.6308 24.8027 45.81C26.7064 46.059 28.4922 45.4444 30.1577 44.5954C34.333 42.4645 38.4734 40.2674 42.6282 38.098C43.4904 37.6483 44.3563 37.2045 45.3111 36.7115C44.3238 36.0008 43.2884 35.5667 42.1941 35.8216C40.4732 36.2232 38.7945 36.8089 37.1037 37.3332C36.1525 37.6278 35.2133 37.9597 34.268 38.2724C33.4768 38.5334 32.7432 38.8172 32.1371 39.487C31.5503 40.1364 30.6411 40.1051 29.7909 40.0558C28.9888 40.0089 28.1831 40.0029 27.3798 39.9969C27.0094 39.9945 26.639 40.0546 26.2687 40.051C25.1839 40.0402 24.1004 39.9957 23.0157 39.9945C22.0116 39.9945 21.0087 40.0462 20.0045 40.0474C19.5692 40.0474 19.1195 40.0293 18.7022 39.9211C18.1935 39.7888 17.971 39.3727 18.0251 38.8593C18.0768 38.365 18.3799 38.074 18.885 38.0187C19.004 38.0054 19.1243 37.9958 19.2433 37.9958C22.9207 38.0006 26.5994 38.0054 30.2768 38.0151C30.878 38.0163 31.3687 37.5809 31.3843 36.9989C31.3988 36.4602 30.9502 35.9984 30.3393 35.9839C29.4602 35.9635 28.58 35.9839 27.7009 35.9839C26.5416 35.9839 25.3812 36.0164 24.2231 35.9647C23.8611 35.9491 23.4198 35.7975 23.1673 35.5522C20.6419 33.0894 17.6139 31.9602 14.1108 32.0131C12.8517 32.0323 11.5903 32.0504 10.3336 32.0035C9.54712 31.9746 8.85926 32.1634 8.16659 32.5194C6.01882 33.6221 3.85783 34.7008 1.68241 35.7482C1.36373 35.9022 0.895937 35.9467 0.56764 35.8348C-0.0492714 35.6244 -0.177945 34.8259 0.273014 34.3497C0.432953 34.1813 0.648211 34.0514 0.858658 33.9456C3.35637 32.695 5.85407 31.4467 8.3614 30.2165C8.63558 30.0818 8.96508 30.0036 9.27053 30.0012C11.1297 29.982 12.9888 29.9736 14.848 29.9952C18.327 30.0373 21.3502 31.2747 23.9537 33.5548C24.2772 33.8374 24.5803 33.9757 25.0132 33.9685C26.6523 33.9432 28.2914 33.9624 29.9304 33.954C31.8004 33.9444 32.7504 34.6022 33.4154 36.4337C34.7635 35.99 36.1116 35.5414 37.4644 35.1037C38.6766 34.7116 39.8732 34.239 41.1118 33.9648C43.8488 33.36 46.094 34.2547 47.8449 36.4253C47.8918 36.483 47.9471 36.5335 47.9988 36.5864V37.3068L48 37.3055Z" fill="#444444"/>
<path d="M24.4888 0C25.6361 0.328298 26.7677 0.679444 27.7261 1.44427C30.2094 3.42247 31.151 6.00436 30.4138 9.04683C29.6899 12.0328 27.6491 13.9076 24.6403 14.4379C19.5872 15.329 16.0529 11.2054 16.0733 7.45945C16.0926 3.78685 18.3762 0.883878 22.0067 0.104622C22.0789 0.0889891 22.1426 0.0348741 22.21 0H24.4888V0ZM28.604 7.34761C28.6665 4.47832 26.3768 2.09485 23.4991 2.03352C20.5601 1.97099 18.1886 4.21015 18.1117 7.12274C18.0335 10.0762 20.3268 12.5078 23.3055 12.5402C26.1063 12.5715 28.6364 10.2891 28.604 7.34641V7.34761Z" fill="#444444"/>
<path d="M48.0001 26.5103C47.7367 26.7039 47.4998 26.9925 47.2064 27.0731C46.4981 27.2691 46.0026 26.758 45.9713 25.8657C45.9028 23.8863 45.1103 22.234 43.6829 20.8908C41.6181 18.9486 38.5179 18.4652 35.9408 19.6485C35.8326 19.6978 35.7232 19.7459 35.6113 19.7904C35.0377 20.0189 34.4821 19.8361 34.2308 19.3383C33.9795 18.8404 34.1731 18.2896 34.7515 17.9902C36.0875 17.2987 37.515 17.0053 39.0206 17.0113C43.5602 17.0306 47.3158 20.5372 47.8966 24.7425C47.9063 24.8147 47.9652 24.8808 48.0001 24.9506V26.5103Z" fill="#444444"/>
<path d="M23.3248 14.7456C28.7759 14.7492 33.5753 18.7309 34.5266 24.0859C34.6444 24.7497 34.6625 25.4351 34.6793 26.1122C34.6925 26.6665 34.339 27.0417 33.8375 27.1007C33.2831 27.1656 32.8502 26.8926 32.7468 26.3202C32.6085 25.5578 32.5844 24.7725 32.4245 24.0161C31.5887 20.0609 27.767 16.5242 22.8425 16.7863C18.8116 17.0004 15.1173 19.913 14.2022 24.3083C14.0927 24.8314 14.0795 25.3774 14.0446 25.9137C13.9941 26.6942 13.631 27.1163 12.9936 27.1055C12.3502 27.0934 12.0147 26.6701 12.0183 25.8716C12.0388 20.3207 16.5207 15.4178 22.0741 14.8719C22.4914 14.831 22.9087 14.7877 23.326 14.7456H23.3248Z" fill="#444444"/>
<path d="M32.9946 10.9757C32.9669 7.78529 35.5091 5.18657 38.6803 5.16132C41.9332 5.13607 44.58 7.68548 44.6125 10.8747C44.6449 14.0326 42.0739 16.6878 39.0518 16.8021C35.6775 16.9295 32.8743 14.0711 32.9946 10.9757ZM38.7813 7.18762C36.6588 7.19123 35.0113 8.86158 35.0209 10.9997C35.0305 13.1282 36.696 14.7745 38.8282 14.7649C40.8845 14.7553 42.5826 13.0489 42.5898 10.9829C42.597 8.90006 40.8749 7.18522 38.7813 7.18883V7.18762Z" fill="#444444"/>
</g>
<defs>
<linearGradient id="paint0_linear_1125_2876" x1="2.81512e-07" y1="16.7895" x2="16.2105" y2="8.10526" gradientUnits="userSpaceOnUse">
<stop stop-color="#89EBBB"/>
<stop offset="1" stop-color="#89EBBB" stop-opacity="0"/>
</linearGradient>
<clipPath id="clip0_1125_2876">
<rect width="48" height="47.9735" fill="white"/>
</clipPath>
</defs>
</svg>
